<?xml version="1.0" encoding="utf-8"?>
<!-- Generator: Adobe Illustrator 23.0.2, SVG Export Plug-In . SVG Version: 6.00 Build 0)  -->
<svg version="1.1" id="Layer_1" xmlns="http://www.w3.org/2000/svg" xmlns:xlink="http://www.w3.org/1999/xlink" x="0px" y="0px"
	 viewBox="0 0 850.39 850.39" style="enable-background:new 0 0 850.39 850.39;" xml:space="preserve">
<style type="text/css">
	.st0{fill:#333333;}
	.st1{fill:#FFFFFF;}
</style>
<rect x="0" y="0" class="st0" width="850.39" height="850.39"/>
<g>
	<g>
		<path class="st1" d="M464.45,448.44c-5.4,0-9.77,4.33-9.77,9.86v19.33c0,5.45,4.33,9.86,9.77,9.86c5.4,0,9.76-4.33,9.76-9.86
			V458.3C474.22,452.85,469.89,448.44,464.45,448.44z"/>
		<path class="st1" d="M386.33,448.44c-5.4,0-9.76,4.33-9.76,9.86v19.33c0,5.45,4.34,9.86,9.76,9.86c5.4,0,9.77-4.33,9.77-9.86
			V458.3C396.1,452.85,391.76,448.44,386.33,448.44z"/>
		<path class="st1" d="M503.51,428.91c-5.4,0-9.77,4.33-9.77,9.86v19.33c0,5.45,4.33,9.86,9.77,9.86c5.4,0,9.76-4.33,9.76-9.86
			v-19.33C513.28,433.32,508.95,428.91,503.51,428.91z"/>
		<path class="st1" d="M425.39,428.91c-5.4,0-9.77,4.33-9.77,9.86v19.33c0,5.45,4.34,9.86,9.77,9.86c5.4,0,9.77-4.33,9.77-9.86
			v-19.33C435.16,433.32,430.83,428.91,425.39,428.91z"/>
		<path class="st1" d="M347.27,428.91c-5.4,0-9.77,4.33-9.77,9.86v19.33c0,5.45,4.34,9.86,9.77,9.86c5.4,0,9.77-4.33,9.77-9.86
			v-19.33C357.04,433.32,352.7,428.91,347.27,428.91z"/>
		<path class="st1" d="M329.01,300.15c5.39-26.72,29.04-46.9,57.33-46.9c25.59,0,48.61,17.09,55.99,41.56l0.1,0.32
			c2.45,2.11,4.01,5.23,4.01,8.72v0.93c1.66-1.59,3.8-2.69,6.18-3.06v-7.12c0-6.35,5.17-11.51,11.51-11.51
			c5.63,0,10.33,4.07,11.31,9.42c1.21-0.13,2.42-0.2,3.66-0.2c5.58,0,10.86,1.34,15.54,3.73c2.1-2.27,5.1-3.71,8.44-3.71
			c5.15,0,9.52,3.4,10.99,8.07c1.73-1.88,4.07-3.19,6.71-3.6v-2.2c0-0.71,0.07-1.41,0.2-2.09c-9.91-12.24-25.04-19.95-41.87-19.95
			c-7.89,0-15.49,1.66-22.46,4.88c-12.95-26.38-40.32-43.94-70.31-43.94c-37.76,0-69.35,26.89-76.64,62.52
			c2.1-2.26,5.1-3.69,8.43-3.69C323.17,292.33,327.46,295.61,329.01,300.15z"/>
		<path class="st1" d="M567.51,362.85c-1.72,1.06-3.73,1.68-5.89,1.71c-2.02,3.35-5.68,5.6-9.86,5.6c-0.38,0-0.76-0.02-1.14-0.06
			c-1.63,4.68-4.4,8.83-8,12.09c-1.88,3.82-5.8,6.46-10.33,6.46c-0.39,0-0.78-0.02-1.16-0.06c-2.56,0.74-5.26,1.14-8.05,1.14H327.71
			c-12.71,0-23.54-8.19-27.52-19.57c-1.06,5.26-5.72,9.24-11.29,9.24c-2.78,0-5.33-0.99-7.32-2.64
			c6.7,19.03,24.85,32.72,46.13,32.72h195.36c25.99,0,47.31-20.4,48.81-46.03c-0.22,0.01-0.43,0.03-0.65,0.03
			C569.92,363.48,568.68,363.26,567.51,362.85z"/>
		<path class="st1" d="M580.96,325.11c-1.34,0-2.43,1.1-2.43,2.43v3.53c0,1.34-1.1,2.43-2.43,2.43s-2.43-1.1-2.43-2.43v-11.31
			c0-1.34-1.1-2.43-2.43-2.43c-1.34,0-2.43,1.1-2.43,2.43v8.74c0,1.34-1.1,2.43-2.43,2.43h0c-1.34,0-2.43-1.1-2.43-2.43v-3.15
			c0-1.34-1.1-2.43-2.43-2.43s-2.43,1.1-2.43,2.43v0.57c0,1.34-1.1,2.43-2.43,2.43s-2.43-1.1-2.43-2.43v-12.84
			c0-1.34-1.1-2.43-2.43-2.43c-1.34,0-2.43,1.1-2.43,2.43v15.42c0,1.34-1.1,2.43-2.43,2.43s-2.43-1.1-2.43-2.43v-8.74
			c0-1.34-1.1-2.43-2.43-2.43s-2.43,1.1-2.43,2.43v3.1c0,1.34-1.1,2.43-2.43,2.43h0c-1.34,0-2.43-1.1-2.43-2.43V294.6
			c0-1.34-1.1-2.43-2.43-2.43c-1.34,0-2.43,1.1-2.43,2.43v28.27c0,1.34-1.1,2.43-2.43,2.43c-1.34,0-2.43-1.1-2.43-2.43v-14.69
			c0-1.34-1.1-2.43-2.43-2.43h0c-1.34,0-2.43,1.1-2.43,2.43v22.9c0,1.34-1.1,2.43-2.43,2.43c-1.34,0-2.43-1.1-2.43-2.43v-5.72
			c0-1.34-1.1-2.43-2.43-2.43s-2.43,1.1-2.43,2.43v0.57c0,1.34-1.1,2.43-2.43,2.43s-2.43-1.1-2.43-2.43v-22.09
			c0-1.34-1.1-2.43-2.43-2.43s-2.43,1.1-2.43,2.43v27.23c0,1.34-1.1,2.43-2.43,2.43s-2.43-1.1-2.43-2.43v-11.31
			c0-1.34-1.1-2.43-2.43-2.43c-1.34,0-2.43,1.1-2.43,2.43v8.74c0,1.34-1.1,2.43-2.43,2.43s-2.43-1.1-2.43-2.43v-15.42
			c0-1.34-1.1-2.43-2.43-2.43c-1.34,0-2.43,1.1-2.43,2.43v9.78c0,1.34-1.1,2.43-2.43,2.43c-1.34,0-2.43-1.1-2.43-2.43v-3.1
			c0-1.34-1.1-2.43-2.43-2.43s-2.43,1.1-2.43,2.43v6.16c0,1.34-1.1,2.43-2.43,2.43s-2.43-1.1-2.43-2.43V294.6
			c0-1.34-1.1-2.43-2.43-2.43c-1.34,0-2.43,1.1-2.43,2.43v36.48c0,1.34-1.1,2.43-2.43,2.43c-1.34,0-2.43-1.1-2.43-2.43v-17.99
			c0-1.34-1.1-2.43-2.43-2.43c-1.34,0-2.43,1.1-2.43,2.43v12.84c0,1.34-1.1,2.43-2.43,2.43s-2.43-1.1-2.43-2.43v-6.16
			c0-1.34-1.1-2.43-2.43-2.43h0c-1.34,0-2.43,1.1-2.43,2.43v3.1c0,1.34-1.1,2.43-2.43,2.43s-2.43-1.1-2.43-2.43v-19.02
			c0-1.34-1.1-2.43-2.43-2.43s-2.43,1.1-2.43,2.43v24.67c0,1.34-1.1,2.43-2.43,2.43h0c-1.24,0-2.26-0.95-2.41-2.15v-15.7
			c0-1.34-1.1-2.43-2.43-2.43c-1.34,0-2.43,1.1-2.43,2.43v12.84c0,1.34-1.1,2.43-2.43,2.43s-2.43-1.1-2.43-2.43V294.6
			c0-1.34-1.1-2.43-2.43-2.43s-2.43,1.1-2.43,2.43v33.92c0,1.34-1.1,2.43-2.43,2.43h0c-1.34,0-2.43-1.1-2.43-2.43v-15.42
			c0-1.34-1.1-2.43-2.43-2.43s-2.43,1.1-2.43,2.43v9.78c0,1.34-1.1,2.43-2.43,2.43s-2.43-1.1-2.43-2.43v-3.1
			c0-1.34-1.1-2.43-2.43-2.43s-2.43,1.1-2.43,2.43v11.31c0,1.34-1.1,2.43-2.43,2.43s-2.43-1.1-2.43-2.43v-27.23
			c0-1.34-1.1-2.43-2.43-2.43c-1.34,0-2.43,1.1-2.43,2.43v24.67c0,1.34-1.1,2.43-2.43,2.43s-2.43-1.1-2.43-2.43v-8.74
			c0-1.34-1.1-2.43-2.43-2.43c-1.34,0-2.43,1.1-2.43,2.43v3.1c0,1.34-1.1,2.43-2.43,2.43s-2.43-1.1-2.43-2.43v-19.02
			c0-1.34-1.1-2.43-2.43-2.43c-1.34,0-2.43,1.1-2.43,2.43v24.67c0,1.34-1.1,2.43-2.43,2.43s-2.43-1.1-2.43-2.43v-15.42
			c0-1.34-1.1-2.43-2.43-2.43s-2.43,1.1-2.43,2.43v9.78c0,1.34-1.1,2.43-2.43,2.43s-2.43-1.1-2.43-2.43v-19.02
			c0-1.34-1.1-2.43-2.43-2.43s-2.43,1.1-2.43,2.43v27.23c0,1.34-1.1,2.43-2.43,2.43c-1.34,0-2.43-1.1-2.43-2.43v-5.72
			c0-1.34-1.1-2.43-2.43-2.43c-1.34,0-2.43,1.1-2.43,2.43v0.57c0,1.34-1.1,2.43-2.43,2.43s-2.43-1.1-2.43-2.43v-6.16
			c0-1.34-1.1-2.43-2.43-2.43c-1.34,0-2.43,1.1-2.43,2.43v3.1c0,1.34-1.1,2.43-2.43,2.43s-2.43-1.1-2.43-2.43v-19.02
			c0-1.34-1.1-2.43-2.43-2.43s-2.43,1.1-2.43,2.43v24.67c0,1.34-1.1,2.43-2.43,2.43s-2.43-1.1-2.43-2.43v-15.42
			c0-1.34-1.1-2.43-2.43-2.43s-2.43,1.1-2.43,2.43v17.99c0,1.34-1.1,2.43-2.43,2.43h0c-1.34,0-2.43-1.1-2.43-2.43v-5.72
			c0-1.34-1.1-2.43-2.43-2.43s-2.43,1.1-2.43,2.43v0.57c0,1.34-1.1,2.43-2.43,2.43s-2.43-1.1-2.43-2.43v-22.09
			c0-1.34-1.1-2.43-2.43-2.43c-1.34,0-2.43,1.1-2.43,2.43v24.67c0,1.34-1.1,2.43-2.43,2.43s-2.43-1.1-2.43-2.43v-5.4
			c0-1.34-1.1-2.43-2.43-2.43c-1.34,0-2.43,1.1-2.43,2.43v7.97c0,1.34-1.1,2.43-2.43,2.43c-1.34,0-2.43-1.1-2.43-2.43v-2.86
			c0-1.34-1.1-2.43-2.43-2.43s-2.43,1.1-2.43,2.43v15.3c0,1.34,1.1,2.43,2.43,2.43s2.43-1.1,2.43-2.43v-2.86
			c0-1.34,1.1-2.43,2.43-2.43c1.34,0,2.43,1.1,2.43,2.43v7.97c0,1.34,1.1,2.43,2.43,2.43c1.34,0,2.43-1.1,2.43-2.43v-5.4
			c0-1.34,1.1-2.43,2.43-2.43s2.43,1.1,2.43,2.43v24.67c0,1.34,1.1,2.43,2.43,2.43c1.34,0,2.43-1.1,2.43-2.43v-22.09
			c0-1.34,1.1-2.43,2.43-2.43s2.43,1.1,2.43,2.43v0.57c0,1.34,1.1,2.43,2.43,2.43s2.43-1.1,2.43-2.43v-5.72
			c0-1.34,1.1-2.43,2.43-2.43h0c1.34,0,2.43,1.1,2.43,2.43v17.99c0,1.34,1.1,2.43,2.43,2.43s2.43-1.1,2.43-2.43v-15.42
			c0-1.34,1.1-2.43,2.43-2.43s2.43,1.1,2.43,2.43v24.67c0,1.34,1.1,2.43,2.43,2.43s2.43-1.1,2.43-2.43v-19.02
			c0-1.34,1.1-2.43,2.43-2.43s2.43,1.1,2.43,2.43v3.1c0,1.34,1.1,2.43,2.43,2.43c1.34,0,2.43-1.1,2.43-2.43v-6.16
			c0-1.34,1.1-2.43,2.43-2.43s2.43,1.1,2.43,2.43v0.57c0,1.34,1.1,2.43,2.43,2.43c1.34,0,2.43-1.1,2.43-2.43v-5.72
			c0-1.34,1.1-2.43,2.43-2.43c1.34,0,2.43,1.1,2.43,2.43v27.23c0,1.34,1.1,2.43,2.43,2.43s2.43-1.1,2.43-2.43v-19.02
			c0-1.34,1.1-2.43,2.43-2.43s2.43,1.1,2.43,2.43v9.78c0,1.34,1.1,2.43,2.43,2.43s2.43-1.1,2.43-2.43v-15.42
			c0-1.34,1.1-2.43,2.43-2.43s2.43,1.1,2.43,2.43v24.67c0,1.34,1.1,2.43,2.43,2.43c1.34,0,2.43-1.1,2.43-2.43v-19.02
			c0-1.34,1.1-2.43,2.43-2.43s2.43,1.1,2.43,2.43v3.1c0,1.34,1.1,2.43,2.43,2.43c1.34,0,2.43-1.1,2.43-2.43v-8.74
			c0-1.34,1.1-2.43,2.43-2.43s2.43,1.1,2.43,2.43v24.67c0,1.34,1.1,2.43,2.43,2.43c1.34,0,2.43-1.1,2.43-2.43v-27.23
			c0-1.34,1.1-2.43,2.43-2.43s2.43,1.1,2.43,2.43v11.31c0,1.34,1.1,2.43,2.43,2.43s2.43-1.1,2.43-2.43v-3.1
			c0-1.34,1.1-2.43,2.43-2.43s2.43,1.1,2.43,2.43v9.78c0,1.34,1.1,2.43,2.43,2.43s2.43-1.1,2.43-2.43v-15.42
			c0-1.34,1.1-2.43,2.43-2.43h0c1.34,0,2.43,1.1,2.43,2.43v33.92c0,1.34,1.1,2.43,2.43,2.43s2.43-1.1,2.43-2.43v-31.34
			c0-1.34,1.1-2.43,2.43-2.43s2.43,1.1,2.43,2.43v12.84c0,1.34,1.1,2.43,2.43,2.43c1.34,0,2.43-1.1,2.43-2.43v-15.7
			c0.14-1.21,1.16-2.15,2.41-2.15h0c1.34,0,2.43,1.1,2.43,2.43v24.67c0,1.34,1.1,2.43,2.43,2.43s2.43-1.1,2.43-2.43v-19.02
			c0-1.34,1.1-2.43,2.43-2.43s2.43,1.1,2.43,2.43v3.1c0,1.34,1.1,2.43,2.43,2.43h0c1.34,0,2.43-1.1,2.43-2.43v-6.16
			c0-1.34,1.1-2.43,2.43-2.43s2.43,1.1,2.43,2.43v12.84c0,1.34,1.1,2.43,2.43,2.43c1.34,0,2.43-1.1,2.43-2.43v-17.99
			c0-1.34,1.1-2.43,2.43-2.43c1.34,0,2.43,1.1,2.43,2.43v36.48c0,1.34,1.1,2.43,2.43,2.43c1.34,0,2.43-1.1,2.43-2.43v-31.34
			c0-1.34,1.1-2.43,2.43-2.43s2.43,1.1,2.43,2.43v6.16c0,1.34,1.1,2.43,2.43,2.43s2.43-1.1,2.43-2.43v-3.1
			c0-1.34,1.1-2.43,2.43-2.43c1.34,0,2.43,1.1,2.43,2.43v9.78c0,1.34,1.1,2.43,2.43,2.43c1.34,0,2.43-1.1,2.43-2.43v-15.42
			c0-1.34,1.1-2.43,2.43-2.43s2.43,1.1,2.43,2.43v8.74c0,1.34,1.1,2.43,2.43,2.43c1.34,0,2.43-1.1,2.43-2.43v-11.31
			c0-1.34,1.1-2.43,2.43-2.43s2.43,1.1,2.43,2.43v27.23c0,1.34,1.1,2.43,2.43,2.43s2.43-1.1,2.43-2.43v-22.09
			c0-1.34,1.1-2.43,2.43-2.43s2.43,1.1,2.43,2.43v0.57c0,1.34,1.1,2.43,2.43,2.43s2.43-1.1,2.43-2.43v-5.72
			c0-1.34,1.1-2.43,2.43-2.43c1.34,0,2.43,1.1,2.43,2.43v22.9c0,1.34,1.1,2.43,2.43,2.43h0c1.34,0,2.43-1.1,2.43-2.43v-14.69
			c0-1.34,1.1-2.43,2.43-2.43c1.34,0,2.43,1.1,2.43,2.43v28.27c0,1.34,1.1,2.43,2.43,2.43c1.34,0,2.43-1.1,2.43-2.43v-28.27
			c0-1.34,1.1-2.43,2.43-2.43h0c1.34,0,2.43,1.1,2.43,2.43v3.1c0,1.34,1.1,2.43,2.43,2.43s2.43-1.1,2.43-2.43v-8.74
			c0-1.34,1.1-2.43,2.43-2.43s2.43,1.1,2.43,2.43v15.42c0,1.34,1.1,2.43,2.43,2.43c1.34,0,2.43-1.1,2.43-2.43v-12.84
			c0-1.34,1.1-2.43,2.43-2.43s2.43,1.1,2.43,2.43v0.57c0,1.34,1.1,2.43,2.43,2.43s2.43-1.1,2.43-2.43v-3.15
			c0-1.34,1.1-2.43,2.43-2.43h0c1.34,0,2.43,1.1,2.43,2.43v8.74c0,1.34,1.1,2.43,2.43,2.43c1.34,0,2.43-1.1,2.43-2.43v-11.31
			c0-1.34,1.1-2.43,2.43-2.43s2.43,1.1,2.43,2.43v3.53c0,1.34,1.1,2.43,2.43,2.43s2.43-1.1,2.43-2.43v-16.65
			C583.4,326.21,582.3,325.11,580.96,325.11z"/>
		<circle class="st1" cx="279.17" cy="316.32" r="2.45"/>
		<circle class="st1" cx="337.58" cy="318.77" r="2.45"/>
		<path class="st1" d="M378.98,358.89c0-1.35-1.1-2.45-2.45-2.45c-1.35,0-2.45,1.1-2.45,2.45c0,1.35,1.1,2.45,2.45,2.45
			C377.88,361.34,378.98,360.24,378.98,358.89z"/>
		<path class="st1" d="M393.55,312.82c0,1.35,1.1,2.45,2.45,2.45s2.45-1.1,2.45-2.45c0-1.35-1.1-2.45-2.45-2.45
			S393.55,311.46,393.55,312.82z"/>
		<path class="st1" d="M447.11,358.89c0-1.35-1.1-2.45-2.45-2.45s-2.45,1.1-2.45,2.45c0,1.35,1.1,2.45,2.45,2.45
			S447.11,360.24,447.11,358.89z"/>
		<path class="st1" d="M471.41,312.36c0,1.35,1.1,2.45,2.45,2.45c1.35,0,2.45-1.1,2.45-2.45c0-1.35-1.1-2.45-2.45-2.45
			C472.51,309.91,471.41,311.01,471.41,312.36z"/>
		<circle class="st1" cx="512.81" cy="353.98" r="2.45"/>
		<path class="st1" d="M542.02,315.56c1.35,0,2.45-1.1,2.45-2.45c0-1.35-1.1-2.45-2.45-2.45c-1.35,0-2.45,1.1-2.45,2.45
			C539.57,314.46,540.66,315.56,542.02,315.56z"/>
		<path class="st1" d="M563.94,353.03c0-1.35-1.1-2.45-2.45-2.45s-2.45,1.1-2.45,2.45c0,1.35,1.1,2.45,2.45,2.45
			S563.94,354.39,563.94,353.03z"/>
		<path class="st1" d="M301.09,353.52c0-1.35-1.1-2.45-2.45-2.45s-2.45,1.1-2.45,2.45c0,1.35,1.1,2.45,2.45,2.45
			S301.09,354.87,301.09,353.52z"/>
	</g>
	<g>
		<g>
			<path class="st1" d="M146.31,566.54c0-7.47-1.95-13.04-5.86-16.71c-3.91-3.67-9.81-5.5-17.7-5.5H95.96v71.42h9.97v-26.37h18.27
				l11.52,26.37h10.9l-12.66-28.45C142.19,583.99,146.31,577.07,146.31,566.54z M122.85,580.77h-16.92v-27.82h16.82
				c4.43,0,7.77,1.18,10.02,3.53c2.25,2.35,3.37,5.78,3.37,10.28c0,4.57-1.13,8.05-3.37,10.43
				C130.51,579.57,127.21,580.77,122.85,580.77z"/>
			<path class="st1" d="M208.49,604.75v-25.02c0-5.88-1.38-10.19-4.15-12.93c-2.77-2.73-7.2-4.1-13.29-4.1
				c-6.3,0-13.12,0.87-20.45,2.6l0.31,7.06c7.61-0.83,14.33-1.24,20.14-1.24c2.56,0,4.5,0.68,5.81,2.02
				c1.31,1.35,1.97,3.55,1.97,6.59v4.05l-14.74,1.35c-5.74,0.56-9.93,2.02-12.56,4.41c-2.63,2.39-3.95,6.14-3.95,11.26
				c0,5.19,1.28,9.17,3.84,11.94c2.56,2.77,6.3,4.15,11.21,4.15c5.88,0,11.76-1.35,17.65-4.05c1.59,1.39,3.43,2.41,5.5,3.06
				c2.08,0.66,4.6,0.99,7.58,0.99l0.31-7.47c-1.73-0.28-2.99-0.78-3.79-1.51C209.1,607.19,208.63,606.13,208.49,604.75z
				 M198.84,606.1l-2.18,0.73c-3.95,1.32-8.03,1.97-12.25,1.97c-4.64,0-6.95-2.77-6.95-8.31c0-2.63,0.64-4.62,1.92-5.97
				c1.28-1.35,3.27-2.16,5.97-2.44l13.5-1.24V606.1z"/>
			<rect x="235.69" y="563.85" class="st1" width="9.65" height="51.91"/>
			<rect x="235.69" y="543.19" class="st1" width="9.55" height="10.48"/>
			<path class="st1" d="M307.63,565.3c-2.49-1.73-5.92-2.6-10.28-2.6c-2.7,0-5.26,0.35-7.68,1.04c-2.42,0.69-5.12,1.87-8.1,3.53
				v-3.43h-9.55v51.91h9.65v-41.11l1.77-0.83c4.01-1.59,7.85-2.39,11.52-2.39c2.7,0,4.76,0.54,6.18,1.61
				c1.42,1.07,2.39,2.8,2.91,5.19c0.52,2.39,0.78,5.76,0.78,10.12v27.41h9.66v-27.61c0-6.23-0.52-11.16-1.56-14.79
				C311.89,569.71,310.12,567.03,307.63,565.3z"/>
			<path class="st1" d="M412.58,579.11c-2.77-1.52-6.64-2.91-11.63-4.15c-4.78-1.11-8.34-2.13-10.69-3.06
				c-2.35-0.93-4.07-2.13-5.14-3.58c-1.07-1.45-1.61-3.46-1.61-6.02c0-6.92,4.74-10.38,14.22-10.38c4.22,0,11.07,0.56,20.56,1.66
				l0.83-8.1c-5.4-0.9-9.74-1.52-13.03-1.87c-3.29-0.34-6.35-0.52-9.19-0.52c-7.68,0-13.5,1.66-17.44,4.98
				c-3.95,3.32-5.92,8.27-5.92,14.84c0,4.15,0.73,7.51,2.18,10.07c1.45,2.56,3.74,4.66,6.85,6.28c3.11,1.63,7.47,3.1,13.08,4.41
				c3.81,0.83,6.76,1.68,8.88,2.54c2.11,0.87,3.65,2.01,4.62,3.42c0.97,1.42,1.46,3.31,1.46,5.66c0,8.51-4.67,12.77-14.01,12.77
				c-4.91,0-12.04-0.62-21.39-1.87l-1.04,7.99l3.74,0.62c8.1,1.31,14.53,1.97,19.31,1.97c7.61,0,13.41-1.87,17.39-5.61
				c3.98-3.74,5.97-9.27,5.97-16.61c0-3.94-0.64-7.13-1.92-9.55C417.38,582.6,415.35,580.63,412.58,579.11z"/>
			<path class="st1" d="M465.22,562.7c-7.96,0-13.74,2.18-17.34,6.54c-3.6,4.36-5.4,11.28-5.4,20.76c0,9.28,1.77,16.07,5.29,20.4
				c3.53,4.33,9.34,6.49,17.44,6.49s13.91-2.18,17.44-6.54c3.53-4.36,5.29-11.14,5.29-20.35c0-9.41-1.78-16.31-5.35-20.71
				C479.04,564.9,473.24,562.7,465.22,562.7z M476.84,601.01c-0.76,2.63-2.06,4.53-3.89,5.71c-1.83,1.18-4.41,1.76-7.73,1.76
				s-5.92-0.59-7.79-1.76c-1.87-1.18-3.18-3.1-3.95-5.76c-0.76-2.66-1.14-6.31-1.14-10.95c0-4.84,0.4-8.63,1.19-11.37
				c0.79-2.73,2.13-4.67,4-5.81c1.87-1.14,4.43-1.71,7.68-1.71c3.25,0,5.79,0.57,7.63,1.71c1.83,1.14,3.15,3.06,3.95,5.76
				c0.79,2.7,1.19,6.51,1.19,11.42C477.99,594.71,477.61,598.38,476.84,601.01z"/>
			<path class="st1" d="M544.11,604.96c-2.35,1.04-4.55,1.83-6.59,2.39c-2.04,0.55-4.21,0.83-6.49,0.83c-2.77,0-4.83-0.48-6.18-1.45
				c-1.35-0.97-2.27-2.65-2.75-5.04c-0.48-2.39-0.73-5.97-0.73-10.74v-27.09h-9.65v27.09c0,6.51,0.48,11.61,1.45,15.31
				c0.97,3.7,2.66,6.4,5.09,8.1s5.88,2.54,10.38,2.54c2.77,0,5.31-0.35,7.63-1.04c2.32-0.69,4.93-1.87,7.84-3.53v3.43h9.66v-51.91
				h-9.66V604.96z"/>
			<path class="st1" d="M616.16,565.3c-2.49-1.73-5.92-2.6-10.28-2.6c-2.7,0-5.26,0.35-7.68,1.04c-2.42,0.69-5.12,1.87-8.1,3.53
				v-3.43h-9.55v51.91h9.65v-41.11l1.77-0.83c4.01-1.59,7.85-2.39,11.52-2.39c2.7,0,4.76,0.54,6.18,1.61
				c1.42,1.07,2.39,2.8,2.91,5.19c0.52,2.39,0.78,5.76,0.78,10.12v27.41h9.66v-27.61c0-6.23-0.52-11.16-1.56-14.79
				C620.42,569.71,618.65,567.03,616.16,565.3z"/>
			<path class="st1" d="M680.83,564.16c-4.43-0.97-8.48-1.45-12.15-1.45c-7.61,0-13.15,2.2-16.61,6.59
				c-3.46,4.4-5.19,11.51-5.19,21.33c0,8.86,1.45,15.45,4.36,19.78c2.91,4.33,7.71,6.49,14.43,6.49c4.71,0,9.76-1.42,15.16-4.26
				v3.11h9.65v-73.91h-9.65V564.16z M680.83,605.06l-1.87,0.73c-1.59,0.62-3.46,1.18-5.61,1.66c-2.15,0.48-4.05,0.73-5.71,0.73
				c-3.94,0-6.73-1.45-8.36-4.36c-1.63-2.91-2.44-7.47-2.44-13.7c0-6.85,0.97-11.73,2.91-14.64c1.94-2.91,5.29-4.36,10.07-4.36
				c3.05,0,6.71,0.42,11.01,1.24V605.06z"/>
			<path class="st1" d="M752.72,592.39c-1.14-1.94-2.87-3.41-5.19-4.41c-2.32-1-5.52-1.89-9.6-2.65c-1.45-0.28-2.42-0.45-2.91-0.52
				c-2.63-0.48-4.66-0.93-6.07-1.35c-1.42-0.42-2.58-1.05-3.48-1.92c-0.9-0.87-1.35-2.09-1.35-3.69c0-4.29,3.53-6.44,10.59-6.44
				c4.15,0,10.11,0.55,17.86,1.66l0.21-8.1l-3.01-0.62c-6.23-1.04-11.42-1.56-15.57-1.56c-13.15,0-19.72,5.36-19.72,16.09
				c0,3.25,0.62,5.81,1.87,7.68c1.24,1.87,3.03,3.29,5.35,4.26c2.32,0.97,5.45,1.76,9.39,2.39l2.49,0.41
				c2.7,0.42,4.77,0.85,6.23,1.3c1.45,0.45,2.65,1.14,3.58,2.08c0.93,0.93,1.4,2.3,1.4,4.1c0,2.49-0.93,4.29-2.8,5.4
				c-1.87,1.11-4.64,1.66-8.3,1.66c-3.6,0-9.59-0.59-17.96-1.76l-0.42,8.3l3.11,0.52c6.44,1.11,11.66,1.66,15.68,1.66
				c6.92,0,12.04-1.33,15.37-4c3.32-2.66,4.98-6.87,4.98-12.61C754.43,596.96,753.87,594.33,752.72,592.39z"/>
		</g>
	</g>
</g>
</svg>
