<?xml version="1.0" encoding="utf-8"?>
<!-- Generator: Adobe Illustrator 23.0.2, SVG Export Plug-In . SVG Version: 6.00 Build 0)  -->
<svg version="1.1" id="Layer_1" xmlns="http://www.w3.org/2000/svg" xmlns:xlink="http://www.w3.org/1999/xlink" x="0px" y="0px"
	 viewBox="0 0 850.39 850.39" style="enable-background:new 0 0 850.39 850.39;" xml:space="preserve">
<style type="text/css">
	.st0{fill:#333333;}
	.st1{fill:#FFFFFF;}
</style>
<rect x="0" y="0" class="st0" width="850.39" height="850.39"/>
<g>
	<g>
		<path class="st1" d="M464.45,441.64c-5.4,0-9.77,4.33-9.77,9.86v19.33c0,5.45,4.33,9.86,9.77,9.86c5.4,0,9.76-4.33,9.76-9.86
			V451.5C474.22,446.05,469.89,441.64,464.45,441.64z"/>
		<path class="st1" d="M386.33,441.64c-5.4,0-9.76,4.33-9.76,9.86v19.33c0,5.45,4.34,9.86,9.76,9.86c5.4,0,9.77-4.33,9.77-9.86
			V451.5C396.1,446.05,391.76,441.64,386.33,441.64z"/>
		<path class="st1" d="M503.51,422.11c-5.4,0-9.77,4.33-9.77,9.86v19.33c0,5.45,4.33,9.86,9.77,9.86c5.4,0,9.76-4.33,9.76-9.86
			v-19.33C513.28,426.52,508.95,422.11,503.51,422.11z"/>
		<path class="st1" d="M425.39,422.11c-5.4,0-9.77,4.33-9.77,9.86v19.33c0,5.45,4.34,9.86,9.77,9.86c5.4,0,9.77-4.33,9.77-9.86
			v-19.33C435.16,426.52,430.83,422.11,425.39,422.11z"/>
		<path class="st1" d="M347.27,422.11c-5.4,0-9.77,4.33-9.77,9.86v19.33c0,5.45,4.34,9.86,9.77,9.86c5.4,0,9.77-4.33,9.77-9.86
			v-19.33C357.04,426.52,352.7,422.11,347.27,422.11z"/>
		<path class="st1" d="M329.01,293.34c5.39-26.72,29.04-46.9,57.33-46.9c25.59,0,48.61,17.09,55.99,41.56l0.1,0.32
			c2.45,2.11,4.01,5.23,4.01,8.72v0.93c1.66-1.59,3.8-2.69,6.18-3.06v-7.12c0-6.35,5.17-11.51,11.51-11.51
			c5.63,0,10.33,4.07,11.31,9.42c1.21-0.13,2.42-0.2,3.66-0.2c5.58,0,10.86,1.34,15.54,3.73c2.1-2.27,5.1-3.71,8.44-3.71
			c5.15,0,9.52,3.4,10.99,8.07c1.73-1.88,4.07-3.19,6.71-3.6v-2.2c0-0.71,0.07-1.41,0.2-2.09c-9.91-12.24-25.04-19.95-41.87-19.95
			c-7.89,0-15.49,1.66-22.46,4.88c-12.95-26.38-40.32-43.94-70.31-43.94c-37.76,0-69.35,26.89-76.64,62.52
			c2.1-2.26,5.1-3.69,8.43-3.69C323.17,285.53,327.46,288.8,329.01,293.34z"/>
		<path class="st1" d="M567.51,356.05c-1.72,1.06-3.73,1.68-5.89,1.71c-2.02,3.35-5.68,5.6-9.86,5.6c-0.38,0-0.76-0.02-1.14-0.06
			c-1.63,4.68-4.4,8.83-8,12.09c-1.88,3.82-5.8,6.46-10.33,6.46c-0.39,0-0.78-0.02-1.16-0.06c-2.56,0.74-5.26,1.14-8.05,1.14H327.71
			c-12.71,0-23.54-8.19-27.52-19.57c-1.06,5.26-5.72,9.24-11.29,9.24c-2.78,0-5.33-0.99-7.32-2.64
			c6.7,19.03,24.85,32.72,46.13,32.72h195.36c25.99,0,47.31-20.4,48.81-46.03c-0.22,0.01-0.43,0.03-0.65,0.03
			C569.92,356.68,568.68,356.45,567.51,356.05z"/>
		<path class="st1" d="M580.96,318.31c-1.34,0-2.43,1.1-2.43,2.43v3.53c0,1.34-1.1,2.43-2.43,2.43s-2.43-1.1-2.43-2.43v-11.31
			c0-1.34-1.1-2.43-2.43-2.43c-1.34,0-2.43,1.1-2.43,2.43v8.74c0,1.34-1.1,2.43-2.43,2.43h0c-1.34,0-2.43-1.1-2.43-2.43v-3.15
			c0-1.34-1.1-2.43-2.43-2.43s-2.43,1.1-2.43,2.43v0.57c0,1.34-1.1,2.43-2.43,2.43s-2.43-1.1-2.43-2.43v-12.84
			c0-1.34-1.1-2.43-2.43-2.43c-1.34,0-2.43,1.1-2.43,2.43v15.42c0,1.34-1.1,2.43-2.43,2.43s-2.43-1.1-2.43-2.43v-8.74
			c0-1.34-1.1-2.43-2.43-2.43s-2.43,1.1-2.43,2.43v3.1c0,1.34-1.1,2.43-2.43,2.43h0c-1.34,0-2.43-1.1-2.43-2.43v-28.27
			c0-1.34-1.1-2.43-2.43-2.43c-1.34,0-2.43,1.1-2.43,2.43v28.27c0,1.34-1.1,2.43-2.43,2.43c-1.34,0-2.43-1.1-2.43-2.43v-14.69
			c0-1.34-1.1-2.43-2.43-2.43h0c-1.34,0-2.43,1.1-2.43,2.43v22.9c0,1.34-1.1,2.43-2.43,2.43c-1.34,0-2.43-1.1-2.43-2.43v-5.72
			c0-1.34-1.1-2.43-2.43-2.43s-2.43,1.1-2.43,2.43v0.57c0,1.34-1.1,2.43-2.43,2.43s-2.43-1.1-2.43-2.43v-22.09
			c0-1.34-1.1-2.43-2.43-2.43s-2.43,1.1-2.43,2.43v27.23c0,1.34-1.1,2.43-2.43,2.43s-2.43-1.1-2.43-2.43v-11.31
			c0-1.34-1.1-2.43-2.43-2.43c-1.34,0-2.43,1.1-2.43,2.43v8.74c0,1.34-1.1,2.43-2.43,2.43s-2.43-1.1-2.43-2.43v-15.42
			c0-1.34-1.1-2.43-2.43-2.43c-1.34,0-2.43,1.1-2.43,2.43v9.78c0,1.34-1.1,2.43-2.43,2.43c-1.34,0-2.43-1.1-2.43-2.43v-3.1
			c0-1.34-1.1-2.43-2.43-2.43s-2.43,1.1-2.43,2.43v6.16c0,1.34-1.1,2.43-2.43,2.43s-2.43-1.1-2.43-2.43v-31.34
			c0-1.34-1.1-2.43-2.43-2.43c-1.34,0-2.43,1.1-2.43,2.43v36.48c0,1.34-1.1,2.43-2.43,2.43c-1.34,0-2.43-1.1-2.43-2.43v-17.99
			c0-1.34-1.1-2.43-2.43-2.43c-1.34,0-2.43,1.1-2.43,2.43v12.84c0,1.34-1.1,2.43-2.43,2.43s-2.43-1.1-2.43-2.43v-6.16
			c0-1.34-1.1-2.43-2.43-2.43h0c-1.34,0-2.43,1.1-2.43,2.43v3.1c0,1.34-1.1,2.43-2.43,2.43s-2.43-1.1-2.43-2.43v-19.02
			c0-1.34-1.1-2.43-2.43-2.43s-2.43,1.1-2.43,2.43v24.67c0,1.34-1.1,2.43-2.43,2.43h0c-1.24,0-2.26-0.95-2.41-2.15v-15.7
			c0-1.34-1.1-2.43-2.43-2.43c-1.34,0-2.43,1.1-2.43,2.43v12.84c0,1.34-1.1,2.43-2.43,2.43s-2.43-1.1-2.43-2.43v-31.34
			c0-1.34-1.1-2.43-2.43-2.43s-2.43,1.1-2.43,2.43v33.92c0,1.34-1.1,2.43-2.43,2.43h0c-1.34,0-2.43-1.1-2.43-2.43v-15.42
			c0-1.34-1.1-2.43-2.43-2.43s-2.43,1.1-2.43,2.43v9.78c0,1.34-1.1,2.43-2.43,2.43s-2.43-1.1-2.43-2.43v-3.1
			c0-1.34-1.1-2.43-2.43-2.43s-2.43,1.1-2.43,2.43v11.31c0,1.34-1.1,2.43-2.43,2.43s-2.43-1.1-2.43-2.43v-27.23
			c0-1.34-1.1-2.43-2.43-2.43c-1.34,0-2.43,1.1-2.43,2.43v24.67c0,1.34-1.1,2.43-2.43,2.43s-2.43-1.1-2.43-2.43v-8.74
			c0-1.34-1.1-2.43-2.43-2.43c-1.34,0-2.43,1.1-2.43,2.43v3.1c0,1.34-1.1,2.43-2.43,2.43s-2.43-1.1-2.43-2.43v-19.02
			c0-1.34-1.1-2.43-2.43-2.43c-1.34,0-2.43,1.1-2.43,2.43v24.67c0,1.34-1.1,2.43-2.43,2.43s-2.43-1.1-2.43-2.43v-15.42
			c0-1.34-1.1-2.43-2.43-2.43s-2.43,1.1-2.43,2.43v9.78c0,1.34-1.1,2.43-2.43,2.43s-2.43-1.1-2.43-2.43v-19.02
			c0-1.34-1.1-2.43-2.43-2.43s-2.43,1.1-2.43,2.43v27.23c0,1.34-1.1,2.43-2.43,2.43c-1.34,0-2.43-1.1-2.43-2.43v-5.72
			c0-1.34-1.1-2.43-2.43-2.43c-1.34,0-2.43,1.1-2.43,2.43v0.57c0,1.34-1.1,2.43-2.43,2.43s-2.43-1.1-2.43-2.43v-6.16
			c0-1.34-1.1-2.43-2.43-2.43c-1.34,0-2.43,1.1-2.43,2.43v3.1c0,1.34-1.1,2.43-2.43,2.43s-2.43-1.1-2.43-2.43v-19.02
			c0-1.34-1.1-2.43-2.43-2.43s-2.43,1.1-2.43,2.43v24.67c0,1.34-1.1,2.43-2.43,2.43s-2.43-1.1-2.43-2.43v-15.42
			c0-1.34-1.1-2.43-2.43-2.43s-2.43,1.1-2.43,2.43v17.99c0,1.34-1.1,2.43-2.43,2.43h0c-1.34,0-2.43-1.1-2.43-2.43v-5.72
			c0-1.34-1.1-2.43-2.43-2.43s-2.43,1.1-2.43,2.43v0.57c0,1.34-1.1,2.43-2.43,2.43s-2.43-1.1-2.43-2.43v-22.09
			c0-1.34-1.1-2.43-2.43-2.43c-1.34,0-2.43,1.1-2.43,2.43v24.67c0,1.34-1.1,2.43-2.43,2.43s-2.43-1.1-2.43-2.43v-5.4
			c0-1.34-1.1-2.43-2.43-2.43c-1.34,0-2.43,1.1-2.43,2.43v7.97c0,1.34-1.1,2.43-2.43,2.43c-1.34,0-2.43-1.1-2.43-2.43v-2.86
			c0-1.34-1.1-2.43-2.43-2.43s-2.43,1.1-2.43,2.43v15.3c0,1.34,1.1,2.43,2.43,2.43s2.43-1.1,2.43-2.43v-2.86
			c0-1.34,1.1-2.43,2.43-2.43c1.34,0,2.43,1.1,2.43,2.43v7.97c0,1.34,1.1,2.43,2.43,2.43c1.34,0,2.43-1.1,2.43-2.43v-5.4
			c0-1.34,1.1-2.43,2.43-2.43s2.43,1.1,2.43,2.43v24.67c0,1.34,1.1,2.43,2.43,2.43c1.34,0,2.43-1.1,2.43-2.43V339
			c0-1.34,1.1-2.43,2.43-2.43s2.43,1.1,2.43,2.43v0.57c0,1.34,1.1,2.43,2.43,2.43s2.43-1.1,2.43-2.43v-5.72
			c0-1.34,1.1-2.43,2.43-2.43h0c1.34,0,2.43,1.1,2.43,2.43v17.99c0,1.34,1.1,2.43,2.43,2.43s2.43-1.1,2.43-2.43v-15.42
			c0-1.34,1.1-2.43,2.43-2.43s2.43,1.1,2.43,2.43v24.67c0,1.34,1.1,2.43,2.43,2.43s2.43-1.1,2.43-2.43v-19.02
			c0-1.34,1.1-2.43,2.43-2.43s2.43,1.1,2.43,2.43v3.1c0,1.34,1.1,2.43,2.43,2.43c1.34,0,2.43-1.1,2.43-2.43V339
			c0-1.34,1.1-2.43,2.43-2.43s2.43,1.1,2.43,2.43v0.57c0,1.34,1.1,2.43,2.43,2.43c1.34,0,2.43-1.1,2.43-2.43v-5.72
			c0-1.34,1.1-2.43,2.43-2.43c1.34,0,2.43,1.1,2.43,2.43v27.23c0,1.34,1.1,2.43,2.43,2.43s2.43-1.1,2.43-2.43v-19.02
			c0-1.34,1.1-2.43,2.43-2.43s2.43,1.1,2.43,2.43v9.78c0,1.34,1.1,2.43,2.43,2.43s2.43-1.1,2.43-2.43v-15.42
			c0-1.34,1.1-2.43,2.43-2.43s2.43,1.1,2.43,2.43v24.67c0,1.34,1.1,2.43,2.43,2.43c1.34,0,2.43-1.1,2.43-2.43v-19.02
			c0-1.34,1.1-2.43,2.43-2.43s2.43,1.1,2.43,2.43v3.1c0,1.34,1.1,2.43,2.43,2.43c1.34,0,2.43-1.1,2.43-2.43v-8.74
			c0-1.34,1.1-2.43,2.43-2.43s2.43,1.1,2.43,2.43v24.67c0,1.34,1.1,2.43,2.43,2.43c1.34,0,2.43-1.1,2.43-2.43v-27.23
			c0-1.34,1.1-2.43,2.43-2.43s2.43,1.1,2.43,2.43v11.31c0,1.34,1.1,2.43,2.43,2.43s2.43-1.1,2.43-2.43v-3.1
			c0-1.34,1.1-2.43,2.43-2.43s2.43,1.1,2.43,2.43v9.78c0,1.34,1.1,2.43,2.43,2.43s2.43-1.1,2.43-2.43v-15.42
			c0-1.34,1.1-2.43,2.43-2.43h0c1.34,0,2.43,1.1,2.43,2.43v33.92c0,1.34,1.1,2.43,2.43,2.43s2.43-1.1,2.43-2.43V339
			c0-1.34,1.1-2.43,2.43-2.43s2.43,1.1,2.43,2.43v12.84c0,1.34,1.1,2.43,2.43,2.43c1.34,0,2.43-1.1,2.43-2.43v-15.7
			c0.14-1.21,1.16-2.15,2.41-2.15h0c1.34,0,2.43,1.1,2.43,2.43v24.67c0,1.34,1.1,2.43,2.43,2.43s2.43-1.1,2.43-2.43v-19.02
			c0-1.34,1.1-2.43,2.43-2.43s2.43,1.1,2.43,2.43v3.1c0,1.34,1.1,2.43,2.43,2.43h0c1.34,0,2.43-1.1,2.43-2.43V339
			c0-1.34,1.1-2.43,2.43-2.43s2.43,1.1,2.43,2.43v12.84c0,1.34,1.1,2.43,2.43,2.43c1.34,0,2.43-1.1,2.43-2.43v-17.99
			c0-1.34,1.1-2.43,2.43-2.43c1.34,0,2.43,1.1,2.43,2.43v36.48c0,1.34,1.1,2.43,2.43,2.43c1.34,0,2.43-1.1,2.43-2.43V339
			c0-1.34,1.1-2.43,2.43-2.43s2.43,1.1,2.43,2.43v6.16c0,1.34,1.1,2.43,2.43,2.43s2.43-1.1,2.43-2.43v-3.1
			c0-1.34,1.1-2.43,2.43-2.43c1.34,0,2.43,1.1,2.43,2.43v9.78c0,1.34,1.1,2.43,2.43,2.43c1.34,0,2.43-1.1,2.43-2.43v-15.42
			c0-1.34,1.1-2.43,2.43-2.43s2.43,1.1,2.43,2.43v8.74c0,1.34,1.1,2.43,2.43,2.43c1.34,0,2.43-1.1,2.43-2.43v-11.31
			c0-1.34,1.1-2.43,2.43-2.43s2.43,1.1,2.43,2.43v27.23c0,1.34,1.1,2.43,2.43,2.43s2.43-1.1,2.43-2.43V339
			c0-1.34,1.1-2.43,2.43-2.43s2.43,1.1,2.43,2.43v0.57c0,1.34,1.1,2.43,2.43,2.43s2.43-1.1,2.43-2.43v-5.72
			c0-1.34,1.1-2.43,2.43-2.43c1.34,0,2.43,1.1,2.43,2.43v22.9c0,1.34,1.1,2.43,2.43,2.43h0c1.34,0,2.43-1.1,2.43-2.43v-14.69
			c0-1.34,1.1-2.43,2.43-2.43c1.34,0,2.43,1.1,2.43,2.43v28.27c0,1.34,1.1,2.43,2.43,2.43c1.34,0,2.43-1.1,2.43-2.43v-28.27
			c0-1.34,1.1-2.43,2.43-2.43h0c1.34,0,2.43,1.1,2.43,2.43v3.1c0,1.34,1.1,2.43,2.43,2.43s2.43-1.1,2.43-2.43v-8.74
			c0-1.34,1.1-2.43,2.43-2.43s2.43,1.1,2.43,2.43v15.42c0,1.34,1.1,2.43,2.43,2.43c1.34,0,2.43-1.1,2.43-2.43V339
			c0-1.34,1.1-2.43,2.43-2.43s2.43,1.1,2.43,2.43v0.57c0,1.34,1.1,2.43,2.43,2.43s2.43-1.1,2.43-2.43v-3.15
			c0-1.34,1.1-2.43,2.43-2.43h0c1.34,0,2.43,1.1,2.43,2.43v8.74c0,1.34,1.1,2.43,2.43,2.43c1.34,0,2.43-1.1,2.43-2.43v-11.31
			c0-1.34,1.1-2.43,2.43-2.43s2.43,1.1,2.43,2.43v3.53c0,1.34,1.1,2.43,2.43,2.43s2.43-1.1,2.43-2.43v-16.65
			C583.4,319.4,582.3,318.31,580.96,318.31z"/>
		<circle class="st1" cx="279.17" cy="309.52" r="2.45"/>
		<circle class="st1" cx="337.58" cy="311.97" r="2.45"/>
		<path class="st1" d="M378.98,352.08c0-1.35-1.1-2.45-2.45-2.45c-1.35,0-2.45,1.1-2.45,2.45c0,1.35,1.1,2.45,2.45,2.45
			C377.88,354.54,378.98,353.44,378.98,352.08z"/>
		<path class="st1" d="M393.55,306.01c0,1.35,1.1,2.45,2.45,2.45s2.45-1.1,2.45-2.45c0-1.35-1.1-2.45-2.45-2.45
			S393.55,304.66,393.55,306.01z"/>
		<path class="st1" d="M447.11,352.08c0-1.35-1.1-2.45-2.45-2.45s-2.45,1.1-2.45,2.45c0,1.35,1.1,2.45,2.45,2.45
			S447.11,353.44,447.11,352.08z"/>
		<path class="st1" d="M471.41,305.56c0,1.35,1.1,2.45,2.45,2.45c1.35,0,2.45-1.1,2.45-2.45c0-1.35-1.1-2.45-2.45-2.45
			C472.51,303.11,471.41,304.2,471.41,305.56z"/>
		<circle class="st1" cx="512.81" cy="347.18" r="2.45"/>
		<path class="st1" d="M542.02,308.76c1.35,0,2.45-1.1,2.45-2.45c0-1.35-1.1-2.45-2.45-2.45c-1.35,0-2.45,1.1-2.45,2.45
			C539.57,307.66,540.66,308.76,542.02,308.76z"/>
		<path class="st1" d="M563.94,346.23c0-1.35-1.1-2.45-2.45-2.45s-2.45,1.1-2.45,2.45c0,1.35,1.1,2.45,2.45,2.45
			S563.94,347.58,563.94,346.23z"/>
		<path class="st1" d="M301.09,346.71c0-1.35-1.1-2.45-2.45-2.45s-2.45,1.1-2.45,2.45c0,1.35,1.1,2.45,2.45,2.45
			S301.09,348.07,301.09,346.71z"/>
	</g>
	<g>
		<g>
			<path class="st1" d="M409.66,588.75h-12.87h0h-4.08c-1.67,0-3.16-0.4-4.45-1.2c-1.29-0.8-2.32-1.83-3.09-3.09v-12.98
				c0-9.63-1.97-16.57-5.91-20.82c-3.94-4.25-10.45-6.38-19.52-6.38c-3.84,0-7.41,0.31-10.73,0.94c-3.31,0.63-5.91,1.33-7.8,2.09
				c-0.77,3-1.46,6.75-2.09,11.25c-0.63,4.5-0.94,8.95-0.94,13.34c0,5.51,0.49,11.13,1.46,16.85h-16.95h-9.52v-17.37
				c0-5.72-1.01-10.6-3.04-14.65c-2.02-4.04-4.79-7.13-8.32-9.26s-7.59-3.19-12.19-3.19c-6.42,0-11.93,1.95-16.53,5.86
				c-4.6,3.91-9.14,9.31-13.6,16.22v-43.21h-9.94v65.61h-9.52h-26.16h-26.16h-26.16h-26.16h0h-14.44v-43.32h-9.84v54.93
				c0,4.53-0.8,8.06-2.41,10.57c-1.6,2.51-3.97,3.77-7.11,3.77c-1.47,0-3.35-0.11-5.65-0.31v8.79l2.51,0.21
				c1.88,0.21,3.63,0.31,5.23,0.31c5.79,0,10.11-2.18,12.97-6.54c2.86-4.36,4.29-10.66,4.29-18.89v-0.63h14.44h0h26.16h26.16h26.16
				h26.16h82.66h62.47v-4.29c0.98,1.25,2.16,2.28,3.56,3.09c1.4,0.8,2.72,1.2,3.98,1.2h4.08h0h22.81v-74.5h-9.94V588.75z
				 M303.35,588.75h-43.84v-3.03c0-2.86,1.32-6.96,3.98-12.29c2.65-5.34,6.12-10.04,10.41-14.13c4.29-4.08,8.84-6.12,13.66-6.12
				c2.72,0,5.28,0.7,7.69,2.09c2.41,1.4,4.36,3.52,5.86,6.38c1.5,2.86,2.25,6.35,2.25,10.46V588.75z M375.23,588.75h-25.74
				c-0.35-1.88-0.68-4.38-0.99-7.48c-0.31-3.1-0.47-6.23-0.47-9.36c0-5.44,0.52-11.37,1.57-17.79c2.86-0.63,5.79-0.94,8.79-0.94
				c5.86,0,10.13,1.41,12.82,4.24c2.69,2.82,4.03,7.45,4.03,13.86V588.75z"/>
			<rect x="437.81" y="523.14" class="st1" width="9.94" height="74.5"/>
			<rect x="510.11" y="535.18" class="st1" width="8.89" height="10.15"/>
			<rect x="524.13" y="535.18" class="st1" width="8.79" height="10.15"/>
			<path class="st1" d="M544.74,588.75h-31.5c-6.98,0-11.81-0.89-14.49-2.67c-2.69-1.78-4.03-4.69-4.03-8.74
				c0-2.44,0.42-6.59,1.25-12.45l0.94-7.74l-7.85-0.42c-0.84,3.84-1.59,7.88-2.25,12.14c-0.66,4.26-0.99,7.85-0.99,10.78
				c0,4.67,1.03,8.32,3.09,10.93c2.06,2.62,5.11,4.45,9.16,5.49c4.04,1.05,9.28,1.57,15.7,1.57h40.91v-52.32h-9.94V588.75z"/>
			<path class="st1" d="M748.94,552.39c-3.66-5.41-9.89-8.11-18.68-8.11c-4.47,0-8.41,0.77-11.82,2.3c-3.42,1.54-6.4,3.52-8.95,5.97
				c-2.55,2.44-5.39,5.62-8.53,9.52v-16.74h-9.84v43.42h-14.86h-26.16h-26.16h-12.87v-43.22c-2.65-0.56-6.05-1.06-10.2-1.52
				s-7.83-0.68-11.04-0.68c-5.72,0-10.24,0.96-13.55,2.88c-3.31,1.92-5.69,4.94-7.11,9.05c-1.43,4.12-2.18,9.63-2.25,16.53
				c0,7.32,1.27,13.46,3.82,18.42c2.54,4.95,7.86,7.43,15.96,7.43h14.33c0,4.74-0.38,8.35-1.15,10.83
				c-0.77,2.47-1.88,4.13-3.35,4.97c-1.47,0.84-3.38,1.26-5.76,1.26c-3.7,0-8.97-0.56-15.8-1.68v8.89
				c8.09,1.12,13.6,1.68,16.53,1.68c6.63,0,11.39-2.27,14.28-6.8c2.89-4.54,4.59-10.92,5.07-19.15h13.08h26.16h26.16h78.16v-26.26
				C754.43,564.12,752.6,557.8,748.94,552.39z M601.14,588.75h-11.2c-5.37,0-8.89-1.62-10.57-4.87c-1.67-3.24-2.51-7.38-2.51-12.4
				c0.07-6.91,1.2-11.84,3.4-14.81c2.2-2.96,6.12-4.45,11.77-4.45c2.65,0,5.69,0.25,9.1,0.73V588.75z M744.6,588.75h-43.64v-14.13
				c8.93-14.3,18.17-21.45,27.73-21.45c5.16,0,9.1,1.9,11.82,5.7c2.72,3.8,4.08,8.53,4.08,14.18V588.75z"/>
		</g>
	</g>
</g>
</svg>
