<svg id="g7304" xmlns="http://www.w3.org/2000/svg" width="19.82" height="25.001" viewBox="0 0 19.82 25.001">
  <g id="g7306">
    <g id="g7308">
      <path id="path7310" d="M21.434,17.188a.977.977,0,0,0,.977-.977V3.906A3.911,3.911,0,0,0,18.5,0H6.5A3.911,3.911,0,0,0,2.591,3.906V21.095A3.911,3.911,0,0,0,6.5,25H18.5a3.911,3.911,0,0,0,3.906-3.906.977.977,0,0,0-1.953,0A1.955,1.955,0,0,1,18.5,23.048H6.5a1.955,1.955,0,0,1-1.953-1.953V3.906A1.955,1.955,0,0,1,6.5,1.953H18.5a1.955,1.955,0,0,1,1.953,1.953V16.212A.977.977,0,0,0,21.434,17.188Z" transform="translate(-2.591)" fill="#fff"/>
    </g>
  </g>
  <g id="g7312" transform="translate(3.901 5.86)">
    <g id="g7314">
      <path id="path7316" d="M17.527,5.86H7.468a.977.977,0,1,0,0,1.953H17.527a.977.977,0,1,0,0-1.953Z" transform="translate(-6.492 -5.86)" fill="#ffc025"/>
    </g>
  </g>
  <g id="g7318" transform="translate(3.901 9.766)">
    <g id="g7320">
      <path id="path7322" d="M17.527,9.766H7.468a.977.977,0,1,0,0,1.953H17.527a.977.977,0,1,0,0-1.953Z" transform="translate(-6.492 -9.766)" fill="#ffc025"/>
    </g>
  </g>
  <g id="g7324" transform="translate(3.901 13.672)">
    <g id="g7326">
      <path id="path7328" d="M13.577,13.672H7.468a.977.977,0,1,0,0,1.953h6.109a.977.977,0,0,0,0-1.953Z" transform="translate(-6.492 -13.672)" fill="#ffc025"/>
    </g>
  </g>
</svg>
