<svg id="g7360" xmlns="http://www.w3.org/2000/svg" width="25.001" height="25.001" viewBox="0 0 25.001 25.001">
  <g id="g7362" transform="translate(6.836 6.836)">
    <g id="g7364">
      <path id="path7366" d="M12.5,6.836A5.664,5.664,0,1,0,14.211,17.9a.977.977,0,0,0-.589-1.862,3.706,3.706,0,1,1,2.441-2.495.977.977,0,0,0,1.875.548A5.668,5.668,0,0,0,12.5,6.836Z" transform="translate(-6.836 -6.836)" fill="#ffc025"/>
    </g>
  </g>
  <g id="g7368">
    <g id="g7370" transform="translate(0 0)">
      <path id="path7372" d="M22.071,9.082h-.492a.325.325,0,0,1-.3-.2l-.009-.021a.327.327,0,0,1,.064-.359l.348-.348a2.933,2.933,0,0,0,0-4.143l-.691-.691a2.93,2.93,0,0,0-4.143,0l-.348.348a.327.327,0,0,1-.359.064l-.018-.008a.326.326,0,0,1-.208-.3V2.93A2.933,2.933,0,0,0,12.989,0h-.977a2.933,2.933,0,0,0-2.93,2.93v.492a.326.326,0,0,1-.207.3l-.019.008A.327.327,0,0,1,8.5,3.664L8.15,3.316a2.93,2.93,0,0,0-4.143,0l-.691.69a2.933,2.933,0,0,0,0,4.143l.348.348a.329.329,0,0,1,.063.363l-.006.014a.326.326,0,0,1-.3.208H2.93A2.933,2.933,0,0,0,0,12.012v.977a2.933,2.933,0,0,0,2.93,2.93h.492a.325.325,0,0,1,.3.2l.009.021a.327.327,0,0,1-.064.359l-.348.348a2.93,2.93,0,0,0,0,4.143l.691.691a2.93,2.93,0,0,0,4.143,0l.348-.348a.327.327,0,0,1,.359-.064l.018.008a.326.326,0,0,1,.208.3v.492A2.933,2.933,0,0,0,12.012,25h.977a2.933,2.933,0,0,0,2.93-2.93v-.492a.326.326,0,0,1,.207-.3l.019-.008a.327.327,0,0,1,.359.064l.348.348a2.93,2.93,0,0,0,4.143,0l.691-.691a2.93,2.93,0,0,0,0-4.143l-.348-.348a.327.327,0,0,1-.064-.359l.007-.018a.326.326,0,0,1,.3-.208h.492A2.933,2.933,0,0,0,25,12.989v-.977A2.933,2.933,0,0,0,22.071,9.082Zm.977,3.906a.978.978,0,0,1-.977.977h-.492a2.273,2.273,0,0,0-2.1,1.415l-.006.015a2.274,2.274,0,0,0,.487,2.488l.348.348a.977.977,0,0,1,0,1.381l-.691.691a.977.977,0,0,1-1.381,0l-.348-.348a2.275,2.275,0,0,0-2.49-.486l-.014.006a2.273,2.273,0,0,0-1.415,2.1v.492a.978.978,0,0,1-.977.977h-.977a.978.978,0,0,1-.977-.977v-.492a2.274,2.274,0,0,0-1.416-2.1l-.013-.005a2.306,2.306,0,0,0-.886-.178,2.264,2.264,0,0,0-1.6.664l-.348.348a.977.977,0,0,1-1.381,0L4.7,19.613a.977.977,0,0,1,0-1.381l.348-.348A2.274,2.274,0,0,0,5.532,15.4l-.006-.015a2.273,2.273,0,0,0-2.1-1.415H2.93a.978.978,0,0,1-.977-.977v-.977a.978.978,0,0,1,.977-.977h.492A2.274,2.274,0,0,0,5.527,9.617l0-.011a2.274,2.274,0,0,0-.487-2.49L4.7,6.769a.978.978,0,0,1,0-1.381L5.388,4.7a.977.977,0,0,1,1.381,0l.348.348a2.274,2.274,0,0,0,2.49.486l.014-.006a2.273,2.273,0,0,0,1.415-2.1V2.93a.978.978,0,0,1,.977-.977h.977a.978.978,0,0,1,.977.977v.492a2.273,2.273,0,0,0,1.416,2.1l.013.005a2.275,2.275,0,0,0,2.49-.487l.348-.348a.977.977,0,0,1,1.381,0l.691.691a.978.978,0,0,1,0,1.381l-.348.348A2.273,2.273,0,0,0,19.468,9.6l.007.018a2.273,2.273,0,0,0,2.1,1.415h.492a.978.978,0,0,1,.977.977Z" transform="translate(0 0)" fill="#fff"/>
    </g>
  </g>
</svg>
