<svg id="g7374" xmlns="http://www.w3.org/2000/svg" width="25.001" height="25.001" viewBox="0 0 25.001 25.001">
  <g id="g7376" transform="translate(17.774 5.963)">
    <g id="g7378">
      <path id="path7380" d="M24.024,17.438A.977.977,0,0,0,25,16.462V9.577a3.613,3.613,0,1,0-7.227,0V21.388a3.613,3.613,0,1,0,7.227,0,.977.977,0,0,0-1.953,0,1.66,1.66,0,1,1-3.32,0V9.577a1.66,1.66,0,0,1,3.32,0v6.885A.977.977,0,0,0,24.024,17.438Z" transform="translate(-17.774 -5.963)" fill="#fff"/>
    </g>
  </g>
  <g id="g7382" transform="translate(0 8.942)">
    <g id="g7384">
      <path id="path7386" d="M3.613,8.942A3.617,3.617,0,0,0,0,12.555v8.832a3.613,3.613,0,1,0,7.227,0V12.555A3.617,3.617,0,0,0,3.613,8.942Zm1.66,12.446a1.66,1.66,0,1,1-3.32,0V12.555a1.66,1.66,0,1,1,3.32,0Z" transform="translate(0 -8.942)" fill="#fff"/>
    </g>
  </g>
  <g id="g7388" transform="translate(8.887)">
    <g id="g7390">
      <path id="path7392" d="M12.5,0A3.617,3.617,0,0,0,8.887,3.613V21.388a3.613,3.613,0,1,0,7.227,0V3.613A3.617,3.617,0,0,0,12.5,0Zm1.66,21.388a1.66,1.66,0,1,1-3.32,0V3.613a1.66,1.66,0,0,1,3.32,0Z" transform="translate(-8.887)" fill="#ffc025"/>
    </g>
  </g>
</svg>
