<svg id="g7424" xmlns="http://www.w3.org/2000/svg" width="25" height="25" viewBox="0 0 25 25">
  <path id="path7426" d="M-66.716,206.923a.977.977,0,0,0-.977.977v3.369a.977.977,0,0,0,.977.977h4.492a.976.976,0,0,0,.977-.977V207.9a.976.976,0,0,0-.977-.977Zm.977,1.953H-63.2v1.416h-2.539Z" transform="translate(81.071 -195.156)" fill="#fff"/>
  <path id="path7428" d="M-74.919,206.923a.976.976,0,0,0-.977.977v3.369a.976.976,0,0,0,.977.977h4.492a.977.977,0,0,0,.977-.977V207.9a.977.977,0,0,0-.977-.977Zm.977,1.953H-71.4v1.416h-2.539Z" transform="translate(81.071 -195.156)" fill="#ffc025"/>
  <path id="path7430" d="M-66.716,199.941a.977.977,0,0,0-.977.977v3.369a.977.977,0,0,0,.977.977h4.492a.976.976,0,0,0,.977-.977v-3.369a.976.976,0,0,0-.977-.977Zm.977,1.953H-63.2v1.416h-2.539Z" transform="translate(81.071 -195.156)" fill="#ffc025"/>
  <path id="path7432" d="M-68.571,195.156a.976.976,0,0,0-.977.977v.293H-80.095a.977.977,0,0,0-.977.977.976.976,0,0,0,.977.977h.488v13.477a3.911,3.911,0,0,0,3.906,3.906h6.152V218.2h-4.1a.977.977,0,0,0-.977.977.977.977,0,0,0,.977.977h10.205a.976.976,0,0,0,.977-.977.976.976,0,0,0-.977-.977h-4.15v-2.441h6.152a3.911,3.911,0,0,0,3.906-3.906.977.977,0,0,0-.977-.977.977.977,0,0,0-.977.977,1.955,1.955,0,0,1-1.953,1.953H-75.7a1.955,1.955,0,0,1-1.953-1.953V198.379h18.164v8.594a.976.976,0,0,0,.977.977.976.976,0,0,0,.977-.977v-8.594h.488a.976.976,0,0,0,.977-.977.977.977,0,0,0-.977-.977H-67.595v-.293A.976.976,0,0,0-68.571,195.156Zm.209,4.256h0Zm-6.557.529a.976.976,0,0,0-.977.977v3.369a.976.976,0,0,0,.977.977h4.492a.977.977,0,0,0,.977-.977v-3.369a.977.977,0,0,0-.977-.977Z" transform="translate(81.071 -195.156)" fill="#fff"/>
  <path id="path7434" d="M-73.942,201.894H-71.4v1.416h-2.539Z" transform="translate(81.071 -195.156)" fill="#3498db"/>
</svg>
