<svg id="g7501" xmlns="http://www.w3.org/2000/svg" width="25" height="27.895" viewBox="0 0 25 27.895">
  <path id="path7503" d="M-63.316-584.268a1.09,1.09,0,0,0-1.09-1.09H-75.629a1.09,1.09,0,0,0-1.09,1.09,1.09,1.09,0,0,0,1.09,1.09h11.224A1.09,1.09,0,0,0-63.316-584.268Z" transform="translate(81.071 596.254)" fill="#fff"/>
  <path id="path7505" d="M-75.629-581a1.09,1.09,0,0,0-1.09,1.09,1.09,1.09,0,0,0,1.09,1.09h6.816a1.09,1.09,0,0,0,1.09-1.09,1.09,1.09,0,0,0-1.09-1.09Z" transform="translate(81.071 596.254)" fill="#fff"/>
  <path id="path7507" d="M-73.068-570.538h-3.644a2.182,2.182,0,0,1-2.179-2.179V-591.9a2.182,2.182,0,0,1,2.179-2.179h13.4a2.182,2.182,0,0,1,2.179,2.179v6.7a1.09,1.09,0,0,0,1.09,1.09,1.09,1.09,0,0,0,1.09-1.09v-6.7a4.364,4.364,0,0,0-4.359-4.359h-13.4a4.364,4.364,0,0,0-4.359,4.359v19.178a4.364,4.364,0,0,0,4.359,4.359h3.644a1.09,1.09,0,0,0,1.09-1.09,1.09,1.09,0,0,0-1.09-1.09Z" transform="translate(81.071 596.254)" fill="#fff"/>
  <path id="path7509" d="M-57.027-580.477a3.272,3.272,0,0,0-4.622,0l-5.982,5.969a1.09,1.09,0,0,0-.273.455l-1.3,4.289a1.09,1.09,0,0,0,.263,1.078,1.09,1.09,0,0,0,.78.329,1.089,1.089,0,0,0,.291-.04l4.4-1.218A1.089,1.089,0,0,0-63-569.9l5.97-5.959a3.273,3.273,0,0,0,0-4.623Zm-7.307,8.837-2.213.613.648-2.132,4.037-4.028,1.541,1.541Zm5.766-5.755-.211.211-1.541-1.541.21-.21a1.091,1.091,0,0,1,1.541,0,1.091,1.091,0,0,1,0,1.54Z" transform="translate(81.071 596.254)" fill="#ffc025"/>
  <path id="path7511" d="M-64.406-589.716H-75.629a1.09,1.09,0,0,0-1.09,1.09,1.09,1.09,0,0,0,1.09,1.09h11.224a1.09,1.09,0,0,0,1.09-1.09A1.09,1.09,0,0,0-64.406-589.716Z" transform="translate(81.071 596.254)" fill="#fff"/>
</svg>
