<svg id="g7515" xmlns="http://www.w3.org/2000/svg" width="25.001" height="24.995" viewBox="0 0 25.001 24.995">
  <g id="g7517" transform="translate(16.212 5.273)">
    <g id="g7519">
      <circle id="circle7521" cx="1.563" cy="1.563" r="1.563" fill="#ffc025"/>
    </g>
  </g>
  <g id="g7523">
    <g id="g7525">
      <path id="path7527" d="M24.731,8.1a14.248,14.248,0,0,0-3.072-4.831A13.918,13.918,0,0,0,16.864.261a3.926,3.926,0,0,0-4.165.883L8.864,4.961a3.908,3.908,0,0,0-.815,4.332c.2.453.42.9.654,1.323L.286,19.034A.977.977,0,0,0,0,19.724v4.3A.977.977,0,0,0,.977,25h4.3a.977.977,0,0,0,.977-.977V22.263H8.008a.977.977,0,0,0,.977-.977V19.529h1.758a.977.977,0,1,0,0-1.953H8.008a.977.977,0,0,0-.977.977V20.31H5.274a.977.977,0,0,0-.977.977v1.758H1.953V20.129l8.66-8.66a.977.977,0,0,0,.144-1.2A15.8,15.8,0,0,1,9.834,8.5a1.944,1.944,0,0,1,.409-2.154l3.835-3.817a1.97,1.97,0,0,1,2.09-.443,11.957,11.957,0,0,1,4.114,2.571,12.287,12.287,0,0,1,2.632,4.16,1.939,1.939,0,0,1-.438,2.084l-3.881,3.863a1.967,1.967,0,0,1-2.149.419,12.676,12.676,0,0,1-1.758-.9.977.977,0,0,0-1.022,1.665,14.637,14.637,0,0,0,2.029,1.036,3.914,3.914,0,0,0,4.277-.838l3.881-3.863A3.891,3.891,0,0,0,24.731,8.1Z" transform="translate(0 -0.003)" fill="#fff"/>
    </g>
  </g>
</svg>
