<svg id="path7498" xmlns="http://www.w3.org/2000/svg" width="25" height="25" viewBox="0 0 25 25">
  <path id="path7498-2" data-name="path7498" d="M-56.014,1730.67a10.257,10.257,0,0,1-1.341,5.074.977.977,0,0,1-1.332.364.976.976,0,0,1-.364-1.332,8.3,8.3,0,0,0,1.085-4.106,8.31,8.31,0,0,0-8.3-8.3,8.31,8.31,0,0,0-8.3,8.3,8.31,8.31,0,0,0,8.3,8.3,8.3,8.3,0,0,0,4.062-1.06.977.977,0,0,1,1.33.373.976.976,0,0,1-.373,1.33,10.257,10.257,0,0,1-5.02,1.311,10.207,10.207,0,0,1-6.5-2.329l-6.582,6.537a.974.974,0,0,1-.688.284.973.973,0,0,1-.693-.288.977.977,0,0,1,0-1.381l6.573-6.528a10.207,10.207,0,0,1-2.369-6.548,10.266,10.266,0,0,1,10.254-10.254,10.266,10.266,0,0,1,10.254,10.254Zm-10.205-1.709a1.855,1.855,0,0,0-1.855,1.855,1.855,1.855,0,0,0,1.855,1.855,1.855,1.855,0,0,0,1.855-1.855A1.855,1.855,0,0,0-66.219,1728.961Z" transform="translate(81.014 -1720.416)" fill="#fff"/>
</svg>
