<svg xmlns="http://www.w3.org/2000/svg" width="25" height="25" viewBox="0 0 25 25">
  <g id="path7513" transform="translate(0)">
    <path id="path7513-2" data-name="path7513" d="M-69.49,1606.19v-3.418h-3.418a.977.977,0,0,1-.977-.977.977.977,0,0,1,.977-.977h3.418V1597.4a.977.977,0,0,1,.977-.977.977.977,0,0,1,.977.977v3.418h3.418a.977.977,0,0,1,.977.977.976.976,0,0,1-.977.977h-3.418v3.418a.976.976,0,0,1-.977.977A.977.977,0,0,1-69.49,1606.19Zm9.815-13.232a12.419,12.419,0,0,0-8.839-3.661,12.418,12.418,0,0,0-8.839,3.661,12.418,12.418,0,0,0-3.661,8.839,12.418,12.418,0,0,0,3.661,8.839,12.419,12.419,0,0,0,8.839,3.661,12.48,12.48,0,0,0,6.468-1.8.976.976,0,0,0,.329-1.341.977.977,0,0,0-1.341-.329,10.528,10.528,0,0,1-5.456,1.519A10.559,10.559,0,0,1-79.061,1601.8a10.559,10.559,0,0,1,10.547-10.547A10.559,10.559,0,0,1-57.967,1601.8a10.505,10.505,0,0,1-1.788,5.854.977.977,0,0,0,.269,1.355.977.977,0,0,0,1.355-.269,12.453,12.453,0,0,0,2.118-6.939,12.418,12.418,0,0,0-3.661-8.839Zm0,0" transform="translate(81.014 -1589.296)" fill="#f9f9f9"/>
  </g>
</svg>
