<?xml version="1.0" encoding="UTF-8" standalone="no"?>
<!-- Generator: Adobe Illustrator 19.0.0, SVG Export Plug-In . SVG Version: 6.00 Build 0)  -->

<svg
   xmlns:dc="http://purl.org/dc/elements/1.1/"
   xmlns:cc="http://creativecommons.org/ns#"
   xmlns:rdf="http://www.w3.org/1999/02/22-rdf-syntax-ns#"
   xmlns:svg="http://www.w3.org/2000/svg"
   xmlns="http://www.w3.org/2000/svg"
   xmlns:sodipodi="http://sodipodi.sourceforge.net/DTD/sodipodi-0.dtd"
   xmlns:inkscape="http://www.inkscape.org/namespaces/inkscape"
   version="1.1"
   id="Capa_1"
   x="0px"
   y="0px"
   viewBox="0 0 512 512"
   style="enable-background:new 0 0 512 512;"
   xml:space="preserve"
   inkscape:version="0.91 r13725"
   sodipodi:docname="power.svg"><metadata
     id="metadata49"><rdf:RDF><cc:Work
         rdf:about=""><dc:format>image/svg+xml</dc:format><dc:type
           rdf:resource="http://purl.org/dc/dcmitype/StillImage" /></cc:Work></rdf:RDF></metadata><defs
     id="defs47" /><sodipodi:namedview
     pagecolor="#ffffff"
     bordercolor="#666666"
     borderopacity="1"
     objecttolerance="10"
     gridtolerance="10"
     guidetolerance="10"
     inkscape:pageopacity="0"
     inkscape:pageshadow="2"
     inkscape:window-width="1920"
     inkscape:window-height="1017"
     id="namedview45"
     showgrid="false"
     inkscape:zoom="0.4609375"
     inkscape:cx="251.66102"
     inkscape:cy="256"
     inkscape:window-x="-8"
     inkscape:window-y="-8"
     inkscape:window-maximized="1"
     inkscape:current-layer="g7" /><g
     id="g3"><g
       id="g5"
       style="fill:#ffffff"><g
         id="g7"
         style="fill:#ffffff"><path
           d="M257,276c11.046,0,20-8.954,20-20V20c0-11.046-8.954-20-20-20s-20,8.954-20,20v236C237,267.046,245.954,276,257,276z"
           id="path9"
           style="fill:#febf25;fill-opacity:1" /><path
           d="M367.738,440.894C334.143,461.244,295.505,472,256,472c-119.103,0-216-96.897-216-216     c0-90.988,57.746-172.629,143.693-203.153c10.409-3.697,15.85-15.131,12.153-25.54s-15.132-15.85-25.54-12.153     c-49.382,17.538-91.687,49.3-122.342,91.854C16.586,150.565,0,202.086,0,256c0,68.38,26.628,132.667,74.98,181.02     C123.333,485.371,187.62,512,256,512c46.813,0,92.617-12.757,132.462-36.893c9.447-5.723,12.467-18.021,6.744-27.468     C389.483,438.19,377.184,435.171,367.738,440.894z"
           id="path11"
           style="fill:#ffffff" /><path
           d="M464.685,108.055c-30.198-42.235-71.978-73.993-120.82-91.84c-10.375-3.792-21.859,1.546-25.649,11.921     c-3.791,10.375,1.546,21.858,11.921,25.649C414.989,84.791,472,166.055,472,256c0,42.589-12.665,84.044-36.626,119.885     c-6.139,9.183-3.672,21.603,5.511,27.742c3.415,2.283,7.276,3.375,11.097,3.375c6.453,0,12.789-3.118,16.644-8.886     C497.001,355.674,512,306.531,512,256C512,202.505,495.639,151.346,464.685,108.055z"
           id="path13"
           style="fill:#ffffff" /></g></g></g><g
     id="g15" /><g
     id="g17" /><g
     id="g19" /><g
     id="g21" /><g
     id="g23" /><g
     id="g25" /><g
     id="g27" /><g
     id="g29" /><g
     id="g31" /><g
     id="g33" /><g
     id="g35" /><g
     id="g37" /><g
     id="g39" /><g
     id="g41" /><g
     id="g43" /></svg>